<svg width="16" height="16" viewBox="0 0 16 16" fill="none" xmlns="http://www.w3.org/2000/svg">
<g clip-path="url(#clip0_16_12)">
<path d="M8.66667 2C8.66667 1.82319 8.59643 1.65362 8.4714 1.5286C8.34638 1.40357 8.17681 1.33333 8 1.33333C7.82319 1.33333 7.65362 1.40357 7.5286 1.5286C7.40357 1.65362 7.33333 1.82319 7.33333 2V2.66667H3.33333C2.97971 2.66667 2.64057 2.80714 2.39052 3.05719C2.14048 3.30724 2 3.64638 2 4V12C2 12.3536 2.14048 12.6928 2.39052 12.9428C2.64057 13.1929 2.97971 13.3333 3.33333 13.3333H7.33333V14C7.33333 14.1768 7.40357 14.3464 7.5286 14.4714C7.65362 14.5964 7.82319 14.6667 8 14.6667C8.17681 14.6667 8.34638 14.5964 8.4714 14.4714C8.59643 14.3464 8.66667 14.1768 8.66667 14V2ZM9.33333 3.33333C9.33333 3.15652 9.40357 2.98695 9.5286 2.86193C9.65362 2.7369 9.82319 2.66667 10 2.66667H10.6667C10.8435 2.66667 11.013 2.7369 11.1381 2.86193C11.2631 2.98695 11.3333 3.15652 11.3333 3.33333C11.3333 3.51014 11.2631 3.67971 11.1381 3.80474C11.013 3.92976 10.8435 4 10.6667 4H10C9.82319 4 9.65362 3.92976 9.5286 3.80474C9.40357 3.67971 9.33333 3.51014 9.33333 3.33333ZM12 3.33333C12 3.15652 12.0702 2.98695 12.1953 2.86193C12.3203 2.7369 12.4899 2.66667 12.6667 2.66667C13.0203 2.66667 13.3594 2.80714 13.6095 3.05719C13.8595 3.30724 14 3.64638 14 4C14 4.17681 13.9298 4.34638 13.8047 4.4714C13.6797 4.59643 13.5101 4.66667 13.3333 4.66667C13.1565 4.66667 12.987 4.59643 12.8619 4.4714C12.7369 4.34638 12.6667 4.17681 12.6667 4C12.4899 4 12.3203 3.92976 12.1953 3.80474C12.0702 3.67971 12 3.51014 12 3.33333ZM13.3333 5.33333C13.5101 5.33333 13.6797 5.40357 13.8047 5.5286C13.9298 5.65362 14 5.82319 14 6V6.66667C14 6.84348 13.9298 7.01305 13.8047 7.13807C13.6797 7.2631 13.5101 7.33333 13.3333 7.33333C13.1565 7.33333 12.987 7.2631 12.8619 7.13807C12.7369 7.01305 12.6667 6.84348 12.6667 6.66667V6C12.6667 5.82319 12.7369 5.65362 12.8619 5.5286C12.987 5.40357 13.1565 5.33333 13.3333 5.33333ZM13.3333 8.66667C13.5101 8.66667 13.6797 8.7369 13.8047 8.86193C13.9298 8.98695 14 9.15652 14 9.33333V10C14 10.1768 13.9298 10.3464 13.8047 10.4714C13.6797 10.5964 13.5101 10.6667 13.3333 10.6667C13.1565 10.6667 12.987 10.5964 12.8619 10.4714C12.7369 10.3464 12.6667 10.1768 12.6667 10V9.33333C12.6667 9.15652 12.7369 8.98695 12.8619 8.86193C12.987 8.7369 13.1565 8.66667 13.3333 8.66667ZM13.3333 11.3333C13.5101 11.3333 13.6797 11.4036 13.8047 11.5286C13.9298 11.6536 14 11.8232 14 12C14 12.3536 13.8595 12.6928 13.6095 12.9428C13.3594 13.1929 13.0203 13.3333 12.6667 13.3333C12.4899 13.3333 12.3203 13.2631 12.1953 13.1381C12.0702 13.013 12 12.8435 12 12.6667C12 12.4899 12.0702 12.3203 12.1953 12.1953C12.3203 12.0702 12.4899 12 12.6667 12C12.6667 11.8232 12.7369 11.6536 12.8619 11.5286C12.987 11.4036 13.1565 11.3333 13.3333 11.3333ZM9.33333 12.6667C9.33333 12.4899 9.40357 12.3203 9.5286 12.1953C9.65362 12.0702 9.82319 12 10 12H10.6667C10.8435 12 11.013 12.0702 11.1381 12.1953C11.2631 12.3203 11.3333 12.4899 11.3333 12.6667C11.3333 12.8435 11.2631 13.013 11.1381 13.1381C11.013 13.2631 10.8435 13.3333 10.6667 13.3333H10C9.82319 13.3333 9.65362 13.2631 9.5286 13.1381C9.40357 13.013 9.33333 12.8435 9.33333 12.6667Z" fill="#212529"/>
</g>
<defs>
<clipPath id="clip0_16_12">
<rect width="16" height="16" fill="white"/>
</clipPath>
</defs>
</svg>
